<?xml version="1.0" encoding="UTF-8"?>
<svg xmlns="http://www.w3.org/2000/svg" xmlns:xlink="http://www.w3.org/1999/xlink" viewBox="0 0 30 30" width="30px" height="30px">
<g id="surface200407609">
<path style=" stroke:none;fill-rule:nonzero;fill:rgb(100%,100%,100%);fill-opacity:1;" d="M 0 15 C 0 6.714844 6.714844 0 15 0 C 23.285156 0 30 6.714844 30 15 C 30 23.285156 23.285156 30 15 30 C 6.714844 30 0 23.285156 0 15 Z M 15 29.398438 C 22.953125 29.398438 29.398438 22.953125 29.398438 15 C 29.398438 7.046875 22.953125 0.601562 15 0.601562 C 7.046875 0.601562 0.601562 7.046875 0.601562 15 C 0.601562 22.953125 7.046875 29.398438 15 29.398438 Z M 15 29.398438 "/>
<path style=" stroke:none;fill-rule:nonzero;fill:rgb(100%,100%,100%);fill-opacity:1;" d="M 12.105469 26.398438 L 12.105469 15 L 8.304688 15 L 8.304688 11.199219 L 12.105469 11.199219 L 12.105469 9.160156 C 12.105469 5.296875 13.988281 3.601562 17.199219 3.601562 C 18.738281 3.601562 19.550781 3.714844 19.933594 3.765625 L 19.933594 7.398438 L 17.746094 7.398438 C 16.382812 7.398438 15.90625 8.121094 15.90625 9.578125 L 15.90625 11.199219 L 19.902344 11.199219 L 19.359375 15 L 15.90625 15 L 15.90625 26.398438 Z M 12.105469 26.398438 "/>
</g>
</svg>
