<?xml version="1.0" encoding="UTF-8"?>
<svg xmlns="http://www.w3.org/2000/svg" xmlns:xlink="http://www.w3.org/1999/xlink" viewBox="0 0 30 30" width="30px" height="30px">
<g id="surface200416446">
<path style=" stroke:none;fill-rule:nonzero;fill:rgb(100%,100%,100%);fill-opacity:1;" d="M 0 15 C 0 6.714844 6.714844 0 15 0 C 23.285156 0 30 6.714844 30 15 C 30 23.285156 23.285156 30 15 30 C 6.714844 30 0 23.285156 0 15 Z M 15 29.398438 C 22.953125 29.398438 29.398438 22.953125 29.398438 15 C 29.398438 7.046875 22.953125 0.601562 15 0.601562 C 7.046875 0.601562 0.601562 7.046875 0.601562 15 C 0.601562 22.953125 7.046875 29.398438 15 29.398438 Z M 15 29.398438 "/>
<path style=" stroke:none;fill-rule:nonzero;fill:rgb(100%,100%,100%);fill-opacity:1;" d="M 24.640625 9.019531 C 23.929688 9.335938 23.167969 9.546875 22.367188 9.644531 C 23.183594 9.152344 23.8125 8.378906 24.105469 7.457031 C 23.34375 7.910156 22.496094 8.238281 21.59375 8.414062 C 20.875 7.648438 19.84375 7.167969 18.707031 7.167969 C 16.523438 7.167969 14.753906 8.9375 14.753906 11.121094 C 14.753906 11.433594 14.789062 11.734375 14.855469 12.023438 C 11.566406 11.859375 8.652344 10.28125 6.699219 7.890625 C 6.359375 8.472656 6.167969 9.152344 6.167969 9.878906 C 6.167969 11.25 6.863281 12.460938 7.925781 13.171875 C 7.277344 13.148438 6.667969 12.972656 6.132812 12.675781 C 6.132812 12.691406 6.132812 12.707031 6.132812 12.726562 C 6.132812 14.644531 7.496094 16.242188 9.308594 16.605469 C 8.976562 16.695312 8.625 16.742188 8.265625 16.742188 C 8.007812 16.742188 7.761719 16.71875 7.519531 16.671875 C 8.023438 18.242188 9.484375 19.386719 11.214844 19.421875 C 9.863281 20.480469 8.15625 21.113281 6.300781 21.113281 C 5.984375 21.113281 5.667969 21.09375 5.359375 21.058594 C 7.109375 22.179688 9.1875 22.835938 11.421875 22.835938 C 18.699219 22.835938 22.675781 16.808594 22.675781 11.578125 C 22.675781 11.410156 22.671875 11.238281 22.664062 11.066406 C 23.4375 10.511719 24.109375 9.8125 24.640625 9.019531 Z M 24.640625 9.019531 "/>
</g>
</svg>
