<?xml version="1.0" encoding="UTF-8"?>
<svg xmlns="http://www.w3.org/2000/svg" xmlns:xlink="http://www.w3.org/1999/xlink" viewBox="0 0 30 30" width="30px" height="30px">
<g id="surface199836107">
<path style=" stroke:none;fill-rule:nonzero;fill:rgb(100%,100%,100%);fill-opacity:1;" d="M 0 15 C 0 6.714844 6.714844 0 15 0 C 23.285156 0 30 6.714844 30 15 C 30 23.285156 23.285156 30 15 30 C 6.714844 30 0 23.285156 0 15 Z M 15 29.398438 C 22.953125 29.398438 29.398438 22.953125 29.398438 15 C 29.398438 7.046875 22.953125 0.601562 15 0.601562 C 7.046875 0.601562 0.601562 7.046875 0.601562 15 C 0.601562 22.953125 7.046875 29.398438 15 29.398438 Z M 15 29.398438 "/>
<path style=" stroke:none;fill-rule:nonzero;fill:rgb(100%,100%,100%);fill-opacity:1;" d="M 11.976562 7.609375 C 9.566406 7.609375 7.609375 9.566406 7.609375 11.976562 L 7.609375 18.023438 C 7.609375 20.433594 9.566406 22.390625 11.976562 22.390625 L 18.023438 22.390625 C 20.433594 22.390625 22.390625 20.433594 22.390625 18.023438 L 22.390625 11.976562 C 22.390625 9.566406 20.433594 7.609375 18.023438 7.609375 Z M 11.976562 8.28125 L 18.023438 8.28125 C 20.070312 8.28125 21.71875 9.929688 21.71875 11.976562 L 21.71875 18.023438 C 21.71875 20.070312 20.070312 21.71875 18.023438 21.71875 L 11.976562 21.71875 C 9.929688 21.71875 8.28125 20.070312 8.28125 18.023438 L 8.28125 11.976562 C 8.28125 9.929688 9.929688 8.28125 11.976562 8.28125 Z M 19.03125 10.296875 C 18.660156 10.296875 18.359375 10.597656 18.359375 10.96875 C 18.359375 11.339844 18.660156 11.640625 19.03125 11.640625 C 19.402344 11.640625 19.703125 11.339844 19.703125 10.96875 C 19.703125 10.597656 19.402344 10.296875 19.03125 10.296875 Z M 15 11.304688 C 12.960938 11.304688 11.304688 12.960938 11.304688 15 C 11.304688 17.039062 12.960938 18.695312 15 18.695312 C 17.039062 18.695312 18.695312 17.039062 18.695312 15 C 18.695312 12.960938 17.039062 11.304688 15 11.304688 Z M 15 11.976562 C 16.675781 11.976562 18.023438 13.324219 18.023438 15 C 18.023438 16.675781 16.675781 18.023438 15 18.023438 C 13.324219 18.023438 11.976562 16.675781 11.976562 15 C 11.976562 13.324219 13.324219 11.976562 15 11.976562 Z M 15 11.976562 "/>
</g>
</svg>
